<svg id="Layer_1" data-name="Layer 1" xmlns="http://www.w3.org/2000/svg" viewBox="0 0 512 512">
  <title>Last10K.com</title>
  <rect width="512" height="512" style="fill:none" />
  <path d="M120.852,315.577l52.713,32.768a7.086,7.086,0,0,1,3.346,6.019v57.129a7.088,7.088,0,0,1-10.586,6.164l-52.713-29.919a7.086,7.086,0,0,1-3.589-6.163V321.6A7.087,7.087,0,0,1,120.852,315.577Z" style="fill:#00aeef" />
  <path d="M349.893,312.235,399.55,279.13a5.45,5.45,0,0,0-.089-9.128L349.8,238.276a5.451,5.451,0,0,0-8.385,4.594V307.7A5.451,5.451,0,0,0,349.893,312.235Z" style="fill:#005fe8" />
  <path d="M307.382,126.1,254.011,94.369a6.759,6.759,0,0,0-10.213,5.809v91.485a6.759,6.759,0,0,0,3.191,5.74l27.063,16.823a6.759,6.759,0,0,1,3.19,5.74V327.721a6.76,6.76,0,0,0,3.423,5.878l19.927,11.31a6.758,6.758,0,0,0,10.094-5.878V131.912A6.757,6.757,0,0,0,307.382,126.1Z" style="fill:#005fe8" />
  <path d="M240,235.979l-50.778-31.565a8.055,8.055,0,0,0-12.307,6.841v96.6a8.056,8.056,0,0,0,3.8,6.841l28.551,17.748a8.056,8.056,0,0,1,3.8,6.841v26.97a8.057,8.057,0,0,0,4.079,7.006l14.622,8.3a8.055,8.055,0,0,0,12.031-7.006V242.82A8.052,8.052,0,0,0,240,235.979Z" style="fill:#008ded" />
</svg>